<svg xmlns="http://www.w3.org/2000/svg" version="1.1" xmlns:xlink="http://www.w3.org/1999/xlink" xmlns:svgjs="http://svgjs.dev/svgjs" width="1000" height="1000" viewBox="0 0 1000 1000"><rect width="1000" height="1000" fill="#ffffff"></rect><g transform="matrix(0.7,0,0,0.7,149.57575757575756,466.8846270360436)"><svg viewBox="0 0 396 38" data-background-color="#ffffff" preserveAspectRatio="xMidYMid meet" height="95" width="1000" xmlns="http://www.w3.org/2000/svg" xmlns:xlink="http://www.w3.org/1999/xlink"><g id="tight-bounds" transform="matrix(1,0,0,1,0.2400000000000091,-0.07692973488204302)"><svg viewBox="0 0 395.52 38.153859469764086" height="38.153859469764086" width="395.52"><g><svg viewBox="0 0 466.1031450826995 44.96266660573518" height="38.153859469764086" width="395.52"><g transform="matrix(1,0,0,1,0,6.214087787044445)"><svg viewBox="0 0 395.52 32.53449103164629" height="32.53449103164629" width="395.52"><g id="textblocktransform"><svg viewBox="0 0 395.52 32.53449103164629" height="32.53449103164629" width="395.52" id="textblock"><g><svg viewBox="0 0 395.52 32.53449103164629" height="32.53449103164629" width="395.52"><g transform="matrix(1,0,0,1,0,0)"><svg width="395.52" viewBox="0.9 -35.5 436.97 36" height="32.53449103164629" data-palette-color="#ffffff"><g class="wordmark-text-0" data-fill-palette-color="primary" id="text-0"><path d="M17.35 0.5L17.35 0.5Q11.8 0.5 8.2-1 4.6-2.5 2.8-4.95 1-7.4 0.9-10.15L0.9-10.15Q0.9-10.6 1.23-10.93 1.55-11.25 2-11.25L2-11.25 11.5-11.25Q12.3-11.25 12.73-11.03 13.15-10.8 13.65-10.4L13.65-10.4Q14.15-10.05 14.68-9.78 15.2-9.5 15.88-9.38 16.55-9.25 17.35-9.25L17.35-9.25Q19.05-9.25 20.08-9.63 21.1-10 21.1-10.65L21.1-10.65Q21.1-11.25 20.53-11.65 19.95-12.05 18.55-12.38 17.15-12.7 14.65-13L14.65-13Q10.7-13.55 7.8-14.85 4.9-16.15 3.33-18.43 1.75-20.7 1.75-24L1.75-24Q1.75-27.4 3.68-30 5.6-32.6 9.03-34.05 12.45-35.5 17-35.5L17-35.5Q20.75-35.5 23.65-34.52 26.55-33.55 28.55-31.98 30.55-30.4 31.6-28.6 32.65-26.8 32.7-25.15L32.7-25.15Q32.7-24.7 32.38-24.38 32.05-24.05 31.65-24.05L31.65-24.05 21.65-24.05Q20.95-24.05 20.53-24.25 20.1-24.45 19.65-24.85L19.65-24.85Q19.4-25.1 18.73-25.43 18.05-25.75 17-25.75L17-25.75Q15.75-25.75 15.18-25.38 14.6-25 14.6-24.35L14.6-24.35Q14.6-23.9 15.05-23.5 15.5-23.1 16.7-22.8 17.9-22.5 20.15-22.2L20.15-22.2Q25.15-21.6 28.18-20.28 31.2-18.95 32.58-16.75 33.95-14.55 33.95-11.3L33.95-11.3Q33.95-7.65 31.78-5 29.6-2.35 25.85-0.93 22.1 0.5 17.35 0.5ZM49.25 0L38.95 0Q38.4 0 38-0.4 37.6-0.8 37.6-1.35L37.6-1.35 37.6-33.65Q37.6-34.2 38-34.6 38.4-35 38.95-35L38.95-35 54.1-35Q58.65-35 62.02-33.68 65.4-32.35 67.27-29.63 69.15-26.9 69.15-22.75L69.15-22.75Q69.15-18.6 67.27-15.98 65.4-13.35 62.02-12.13 58.65-10.9 54.1-10.9L54.1-10.9 50.6-10.9 50.6-1.35Q50.6-0.8 50.2-0.4 49.8 0 49.25 0L49.25 0ZM50.35-25.7L50.35-20.15 53.85-20.15Q54.65-20.15 55.4-20.78 56.15-21.4 56.15-22.85L56.15-22.85Q56.15-23.8 55.67-24.75 55.2-25.7 53.85-25.7L53.85-25.7 50.35-25.7ZM84.39 0L74.19 0Q73.64 0 73.25-0.4 72.84-0.8 72.84-1.35L72.84-1.35 72.84-33.65Q72.84-34.2 73.25-34.6 73.64-35 74.19-35L74.19-35 84.39-35Q84.94-35 85.34-34.6 85.75-34.2 85.75-33.65L85.75-33.65 85.75-1.35Q85.75-0.8 85.34-0.4 84.94 0 84.39 0L84.39 0ZM102.39 0L92.59 0Q92.04 0 91.64-0.4 91.24-0.8 91.24-1.35L91.24-1.35 91.24-33.65Q91.24-34.2 91.64-34.6 92.04-35 92.59-35L92.59-35 107.39-35Q114.59-35 118.64-31.75 122.69-28.5 122.69-22.85L122.69-22.85Q122.69-19.5 121.17-17.03 119.64-14.55 117.29-13.05L117.29-13.05 123.44-1.65Q123.59-1.35 123.59-1.1L123.59-1.1Q123.59-0.65 123.27-0.33 122.94 0 122.49 0L122.49 0 112.24 0Q111.24 0 110.74-0.5 110.24-1 110.09-1.35L110.09-1.35 105.79-10.9 103.74-10.9 103.74-1.35Q103.74-0.8 103.34-0.4 102.94 0 102.39 0L102.39 0ZM103.74-25.7L103.74-20.4 107.39-20.4Q108.54-20.4 109.12-21.18 109.69-21.95 109.69-22.95L109.69-22.95Q109.69-23.95 109.17-24.83 108.64-25.7 107.39-25.7L107.39-25.7 103.74-25.7ZM138.89 0L128.69 0Q128.14 0 127.74-0.4 127.34-0.8 127.34-1.35L127.34-1.35 127.34-33.65Q127.34-34.2 127.74-34.6 128.14-35 128.69-35L128.69-35 138.89-35Q139.44-35 139.84-34.6 140.24-34.2 140.24-33.65L140.24-33.65 140.24-1.35Q140.24-0.8 139.84-0.4 139.44 0 138.89 0L138.89 0ZM164.84 0L154.84 0Q154.29 0 153.89-0.4 153.49-0.8 153.49-1.35L153.49-1.35 153.49-24.25 145.19-24.25Q144.64-24.25 144.24-24.65 143.84-25.05 143.84-25.6L143.84-25.6 143.84-33.65Q143.84-34.2 144.24-34.6 144.64-35 145.19-35L145.19-35 174.49-35Q175.04-35 175.44-34.6 175.84-34.2 175.84-33.65L175.84-33.65 175.84-25.6Q175.84-25.05 175.44-24.65 175.04-24.25 174.49-24.25L174.49-24.25 166.19-24.25 166.19-1.35Q166.19-0.8 165.79-0.4 165.39 0 164.84 0L164.84 0ZM195.38 0.5L195.38 0.5Q190.59 0.5 186.91-0.95 183.24-2.4 181.19-5.45 179.13-8.5 179.13-13.2L179.13-13.2 179.13-33.65Q179.13-34.2 179.53-34.6 179.94-35 180.49-35L180.49-35 190.28-35Q190.84-35 191.24-34.6 191.63-34.2 191.63-33.65L191.63-33.65 191.63-13.4Q191.63-11.55 192.56-10.55 193.49-9.55 195.34-9.55L195.34-9.55Q197.19-9.55 198.11-10.55 199.03-11.55 199.03-13.4L199.03-13.4 199.03-33.65Q199.03-34.2 199.44-34.6 199.84-35 200.38-35L200.38-35 210.19-35Q210.74-35 211.13-34.6 211.53-34.2 211.53-33.65L211.53-33.65 211.53-13.2Q211.53-8.5 209.49-5.45 207.44-2.4 203.78-0.95 200.13 0.5 195.38 0.5ZM224.33 0L215.08 0Q214.63 0 214.31-0.33 213.98-0.65 213.98-1.1L213.98-1.1Q213.98-1.3 214.03-1.45L214.03-1.45 225.18-33.35Q225.33-33.9 225.88-34.45 226.43-35 227.43-35L227.43-35 238.28-35Q239.28-35 239.83-34.45 240.38-33.9 240.53-33.35L240.53-33.35 251.68-1.45Q251.73-1.3 251.73-1.1L251.73-1.1Q251.73-0.65 251.41-0.33 251.08 0 250.63 0L250.63 0 241.38 0Q240.43 0 240.01-0.43 239.58-0.85 239.43-1.25L239.43-1.25 238.23-4.55 227.48-4.55 226.28-1.25Q226.13-0.85 225.73-0.43 225.33 0 224.33 0L224.33 0ZM232.83-23.6L230.03-14.3 235.68-14.3 232.83-23.6ZM281.03 0L255.83 0Q255.28 0 254.88-0.4 254.48-0.8 254.48-1.35L254.48-1.35 254.48-33.65Q254.48-34.2 254.88-34.6 255.28-35 255.83-35L255.83-35 265.83-35Q266.38-35 266.78-34.6 267.18-34.2 267.18-33.65L267.18-33.65 267.18-10.25 281.03-10.25Q281.58-10.25 281.98-9.85 282.38-9.45 282.38-8.9L282.38-8.9 282.38-1.35Q282.38-0.8 281.98-0.4 281.58 0 281.03 0L281.03 0Z" fill="#ffffff" data-fill-palette-color="primary"></path><path d="M310.43 0L295.78 0Q295.23 0 294.83-0.4 294.43-0.8 294.43-1.35L294.43-1.35 294.43-33.65Q294.43-34.2 294.83-34.6 295.23-35 295.78-35L295.78-35 310.18-35Q314.88-35 318.58-33.43 322.28-31.85 324.5-28.8 326.73-25.75 326.88-21.25L326.88-21.25Q326.98-19.1 326.98-17.48 326.98-15.85 326.88-13.8L326.88-13.8Q326.68-9.1 324.58-6.03 322.48-2.95 318.85-1.48 315.23 0 310.43 0L310.43 0ZM306.93-25.25L306.93-9.75 310.18-9.75Q311.28-9.75 312.15-10.18 313.03-10.6 313.58-11.5 314.13-12.4 314.18-13.8L314.18-13.8Q314.28-15.25 314.3-16.4 314.33-17.55 314.3-18.73 314.28-19.9 314.18-21.25L314.18-21.25Q314.08-23.35 312.85-24.3 311.63-25.25 309.93-25.25L309.93-25.25 306.93-25.25ZM339.03 0L329.78 0Q329.33 0 329-0.33 328.68-0.65 328.68-1.1L328.68-1.1Q328.68-1.3 328.72-1.45L328.72-1.45 339.88-33.35Q340.03-33.9 340.58-34.45 341.13-35 342.13-35L342.13-35 352.97-35Q353.97-35 354.53-34.45 355.08-33.9 355.22-33.35L355.22-33.35 366.38-1.45Q366.43-1.3 366.43-1.1L366.43-1.1Q366.43-0.65 366.1-0.33 365.78 0 365.32 0L365.32 0 356.08 0Q355.13 0 354.7-0.43 354.28-0.85 354.13-1.25L354.13-1.25 352.93-4.55 342.18-4.55 340.97-1.25Q340.83-0.85 340.43-0.43 340.03 0 339.03 0L339.03 0ZM347.53-23.6L344.72-14.3 350.38-14.3 347.53-23.6ZM388.27 0L378.27 0Q377.72 0 377.32-0.4 376.92-0.8 376.92-1.35L376.92-1.35 376.92-24.25 368.62-24.25Q368.07-24.25 367.67-24.65 367.27-25.05 367.27-25.6L367.27-25.6 367.27-33.65Q367.27-34.2 367.67-34.6 368.07-35 368.62-35L368.62-35 397.92-35Q398.47-35 398.87-34.6 399.27-34.2 399.27-33.65L399.27-33.65 399.27-25.6Q399.27-25.05 398.87-24.65 398.47-24.25 397.92-24.25L397.92-24.25 389.62-24.25 389.62-1.35Q389.62-0.8 389.22-0.4 388.82 0 388.27 0L388.27 0ZM410.47 0L401.22 0Q400.77 0 400.45-0.33 400.12-0.65 400.12-1.1L400.12-1.1Q400.12-1.3 400.17-1.45L400.17-1.45 411.32-33.35Q411.47-33.9 412.02-34.45 412.57-35 413.57-35L413.57-35 424.42-35Q425.42-35 425.97-34.45 426.52-33.9 426.67-33.35L426.67-33.35 437.82-1.45Q437.87-1.3 437.87-1.1L437.87-1.1Q437.87-0.65 437.55-0.33 437.22 0 436.77 0L436.77 0 427.52 0Q426.57 0 426.15-0.43 425.72-0.85 425.57-1.25L425.57-1.25 424.37-4.55 413.62-4.55 412.42-1.25Q412.27-0.85 411.87-0.43 411.47 0 410.47 0L410.47 0ZM418.97-23.6L416.17-14.3 421.82-14.3 418.97-23.6Z" fill="#89939e" data-fill-palette-color="secondary"></path></g></svg></g></svg></g></svg></g></svg></g><g transform="matrix(1,0,0,1,403.20061250478693,0)"><svg viewBox="0 0 62.902532577912545 44.96266660573518" height="44.96266660573518" width="62.902532577912545"><g><svg xmlns="http://www.w3.org/2000/svg" xmlns:xlink="http://www.w3.org/1999/xlink" version="1.1" x="0" y="0" viewBox="-345.9990000000001 270.2100002283115 99.93299999999999 71.43200723032072" enable-background="new -346 256 100 100" xml:space="preserve" height="44.96266660573518" width="62.902532577912545" class="icon-icon-0" data-fill-palette-color="accent" id="icon-0"><g fill="#ffffff" data-fill-palette-color="accent"><circle cx="-298.273" cy="285.589" r="2.0" fill="#ffffff" data-fill-palette-color="accent"></circle><circle cx="-294.199" cy="278.362" r="2.0" fill="#ffffff" data-fill-palette-color="accent"></circle><circle cx="-299.385" cy="272.25" r="2.0" fill="#ffffff" data-fill-palette-color="accent"></circle><circle cx="-285.304" cy="272.249" r="2.0" fill="#ffffff" data-fill-palette-color="accent"></circle><circle cx="-286.786" cy="280.771" r="2.0" fill="#ffffff" data-fill-palette-color="accent"></circle><circle cx="-305.687" cy="279.662" r="2.0" fill="#ffffff" data-fill-palette-color="accent"></circle><path d="M-246.076 282.553l-12.443 5.498c-2.386-1.425-7.98-4.361-13.581-4.361-1.653 0-3.209 0.256-4.665 0.776l-16.606 6.288-0.203 0.088c-2.475 1.201-3.745 3.716-3.161 6.26 0.039 0.165 0.093 0.321 0.144 0.479l-1.316-0.627-9.437-4.526c-0.202-0.091-0.437-0.136-0.677-0.136-0.727-0.002-1.35 0.438-1.614 1.07-0.094 0.216-0.149 0.454-0.149 0.706v4.223l-5.086-0.018c-6.514-0.024-8.555 3.784-8.571 8.5l-0.011 2.893-5.898-0.021c-3.671-4.834-9.493-9.68-16.649-12.921v44.357c10.218-1.706 14.236-6.089 19.399-7.564 7.725-2.209 13.166-0.221 13.166-0.221 3.941 5.052 11.729 8.319 18.634 8.346 0.662 0.002 16.963-0.387 20.936-14.797l27.798-12.929L-246.076 282.553zM-285.126 328.665c-0.349 0.169-0.692 0.253-1.023 0.253-1.041 0-1.785-0.861-1.981-1.714-0.226-0.981 0.213-1.845 1.176-2.312l11.758-5.709c0.345-0.166 0.657-0.59 0.5-1.278-0.144-0.627-0.647-1.295-1.299-1.295-0.142 0-0.278 0.031-0.407 0.094l-18.076 8.776c-0.345 0.167-0.687 0.253-1.016 0.253-1.053 0-1.806-0.877-2.004-1.745-0.228-0.988 0.209-1.855 1.17-2.322l18.076-8.776c0.346-0.168 0.658-0.593 0.499-1.28-0.144-0.628-0.647-1.297-1.298-1.297-0.142 0-0.277 0.031-0.407 0.094l-21.086 10.239c-0.344 0.168-0.686 0.253-1.013 0.253-1.052 0-1.804-0.878-2.004-1.746-0.228-0.988 0.209-1.855 1.167-2.319l21.084-10.239c0.346-0.168 0.658-0.591 0.5-1.279-0.143-0.628-0.646-1.295-1.298-1.295-0.14 0-0.277 0.03-0.406 0.093l-16.369 7.948c-0.343 0.167-0.683 0.252-1.009 0.252-1.053 0-1.804-0.881-2.004-1.75-0.228-0.986 0.207-1.851 1.162-2.313l22.663-11.004c0.354-0.172 0.675-0.614 0.509-1.337-0.157-0.688-0.697-1.419-1.387-1.419-0.144 0-0.283 0.033-0.323 0.061l-10.89 3.317c-0.477 0.231-0.939 0.349-1.378 0.349-1.226 0-1.984-0.906-2.191-1.804-0.207-0.9 0.079-2.108 1.452-2.778l16.596-6.284c1.079-0.385 2.286-0.581 3.586-0.581 6.286 0 12.962 4.527 13.028 4.573l0.284 0.194 9.694-4.284 0.099 24.228L-285.126 328.665z" fill="#ffffff" data-fill-palette-color="accent"></path></g></svg></g></svg></g></svg></g><defs></defs></svg><rect width="395.52" height="38.153859469764086" fill="none" stroke="none" visibility="hidden"></rect></g></svg></g></svg>